<svg xmlns="http://www.w3.org/2000/svg" version="1.1" xmlns:xlink="http://www.w3.org/1999/xlink" xmlns:svgjs="http://svgjs.dev/svgjs" width="1000" height="1000" viewBox="0 0 1000 1000"><rect width="1000" height="1000" fill="#ffffff"></rect><g transform="matrix(0.4307692307692308,0,0,0.4307692307692308,284.16409210267636,150.28340401874027)"><svg viewBox="0 0 152 247" data-background-color="#ffffff" preserveAspectRatio="xMidYMid meet" height="1625" width="1000" xmlns="http://www.w3.org/2000/svg" xmlns:xlink="http://www.w3.org/1999/xlink"><g id="tight-bounds" transform="matrix(1,0,0,1,0.15924183970486183,-0.10000113232692343)"><svg viewBox="0 0 151.68151189743813 247.2" height="247.2" width="151.68151189743813"><g><svg viewBox="0 0 342.7929443690638 558.6601477530749" height="247.2" width="151.68151189743813"><g transform="matrix(1,0,0,1,0,311.4601477530748)"><svg viewBox="0 0 342.7929443690638 247.2" height="247.2" width="342.7929443690638"><g><svg viewBox="0 0 342.7929443690638 247.2" height="247.2" width="342.7929443690638" id="textblock"><g><svg viewBox="0 0 342.7929443690638 247.2" height="247.2" width="342.7929443690638"><g transform="matrix(1,0,0,1,0,0)"><svg width="342.7929443690638" viewBox="0.45000001788139343 -36.54999923706055 51.099998474121094 36.849998474121094" height="247.2" data-palette-color="#ca3433"><path d="M13.1 0L13.1 0Q11.85 0 10.85-0.53 9.85-1.05 9.85-2.05L9.85-2.05 9.85-30.7 2.5-30.7Q1.55-30.7 1-31.6 0.45-32.5 0.45-33.65L0.45-33.65Q0.45-34.7 0.95-35.63 1.45-36.55 2.5-36.55L2.5-36.55 23.65-36.55Q24.75-36.55 25.23-35.63 25.7-34.7 25.7-33.65L25.7-33.65Q25.7-32.5 25.18-31.6 24.65-30.7 23.65-30.7L23.65-30.7 16.35-30.7 16.35-2.05Q16.35-1.05 15.33-0.53 14.3 0 13.1 0ZM39.8 0.3L39.8 0.3Q36.5 0.3 33.85-0.83 31.2-1.95 29.65-4.48 28.1-7 28.1-11.15L28.1-11.15 28.1-25.1Q28.1-29.25 29.65-31.78 31.2-34.3 33.82-35.43 36.45-36.55 39.6-36.55L39.6-36.55Q43.1-36.55 45.77-35.4 48.45-34.25 50-32.1 51.55-29.95 51.55-26.95L51.55-26.95Q51.55-25.1 50.75-24.48 49.95-23.85 48.3-23.85L48.3-23.85Q47-23.85 46.05-24.3 45.1-24.75 45.05-25.9L45.05-25.9Q45-27.1 44.57-28.23 44.15-29.35 43.07-30.1 42-30.85 39.8-30.85L39.8-30.85Q37.35-30.85 35.95-29.43 34.55-28 34.55-25.1L34.55-25.1 34.55-11.15Q34.55-8.25 35.95-6.83 37.35-5.4 39.8-5.4L39.8-5.4Q42.25-5.4 43.65-6.83 45.05-8.25 45.05-11.15L45.05-11.15 45.05-14.1 41-14.1Q40.05-14.1 39.52-14.9 39-15.7 39-16.65L39-16.65Q39-17.6 39.52-18.4 40.05-19.2 41-19.2L41-19.2 49.5-19.2Q50.5-19.2 51.02-18.57 51.55-17.95 51.55-17.1L51.55-17.1 51.55-11.15Q51.55-7 50-4.48 48.45-1.95 45.77-0.83 43.1 0.3 39.8 0.3Z" opacity="1" transform="matrix(1,0,0,1,0,0)" fill="#ca3433" class="undefined-text-0" data-fill-palette-color="primary" id="text-0"></path></svg></g></svg></g></svg></g></svg></g><g transform="matrix(1,0,0,1,65.47345237449119,0)"><svg viewBox="0 0 211.8460396200814 253.10216055307478" height="253.10216055307478" width="211.8460396200814"><g><svg xmlns="http://www.w3.org/2000/svg" xmlns:xlink="http://www.w3.org/1999/xlink" version="1.1" x="8" y="0" viewBox="12.982999801635742 1 75.68599700927734 97.81300354003906" enable-background="new 0 0 100 100" xml:space="preserve" height="253.10216055307478" width="195.8460396200814" class="icon-icon-0" data-fill-palette-color="accent" id="icon-0"><g fill="#ca3433" data-fill-palette-color="accent"><polygon fill-rule="evenodd" clip-rule="evenodd" points="12.983,10.59 30.001,98.813 24.129,39.764 53.15,37.872 53.096,27.989    64.549,1 53.622,18.977  " fill="#ca3433" data-fill-palette-color="accent"></polygon><polygon fill-rule="evenodd" clip-rule="evenodd" points="59.389,54.548 64.549,1.007 55.809,40.723 36.197,41.768 37.767,62.23    30.001,98.813 42.058,58.914  " fill="#ca3433" data-fill-palette-color="accent"></polygon><polygon fill-rule="evenodd" clip-rule="evenodd" points="62.8,67.182 63.349,56.729 47.37,60.484 47.338,72.281 30.001,98.813    51.681,71.197  " fill="#ca3433" data-fill-palette-color="accent"></polygon><polygon fill-rule="evenodd" clip-rule="evenodd" points="65.711,62.394 80.552,57.663 82.061,45.131 66.162,47.226  " fill="#ca3433" data-fill-palette-color="accent"></polygon><polygon fill-rule="evenodd" clip-rule="evenodd" points="72.07,44.502 83.058,43.085 84.639,32.807 76.56,32.434 64.549,1    72.979,31.967  " fill="#ca3433" data-fill-palette-color="accent"></polygon><polygon fill-rule="evenodd" clip-rule="evenodd" points="87.413,31.294 88.669,21.788 79.125,19.094 64.549,1 79.032,23.437    78.61,30.437  " fill="#ca3433" data-fill-palette-color="accent"></polygon></g></svg></g></svg></g><g></g></svg></g><defs></defs></svg><rect width="151.68151189743813" height="247.2" fill="none" stroke="none" visibility="hidden"></rect></g></svg></g></svg>